<?xml version="1.0" standalone="no"?><!DOCTYPE svg PUBLIC "-//W3C//DTD SVG 1.1//EN" "http://www.w3.org/Graphics/SVG/1.1/DTD/svg11.dtd"><svg t="1726298010648" class="icon" viewBox="0 0 1201 1024" version="1.1" xmlns="http://www.w3.org/2000/svg" p-id="16218" xmlns:xlink="http://www.w3.org/1999/xlink" width="75.0625" height="64"><path d="M1109.267692 698.722462c-9.216-272.285538-232.704-490.200615-507.214769-490.200616-274.530462 0-498.018462 217.915077-507.254154 490.200616h1014.488616z" fill="#0CB04A" p-id="16219"></path><path d="M255.094154 503.532308a19.849846 19.849846 0 0 1-17.979077-28.416c58.486154-123.470769 184.497231-203.224615 321.024-203.224616a19.889231 19.889231 0 0 1 0 39.778462c-121.225846 0-233.137231 70.833231-285.065846 180.48a19.889231 19.889231 0 0 1-17.979077 11.362461z" fill="#EDEDED" p-id="16220"></path><path d="M660.578462 211.987692a510.168615 510.168615 0 0 1 158.700307 145.762462c81.624615 115.554462-0.118154 275.121231-141.607384 275.121231H101.474462c-3.564308 21.543385-5.907692 43.480615-6.675693 65.851077h1014.488616c-8.566154-252.632615-201.629538-458.338462-448.708923-486.73477z" fill="#000000" opacity=".35" p-id="16221"></path><path d="M1198.611692 1023.488H5.454769v-351.310769h1193.156923v351.310769z" fill="#FF3A2F" p-id="16222"></path><path d="M1044.972308 672.177231v41.531077c0 134.734769-109.233231 243.948308-243.968 243.948307H5.474462v65.851077h1193.156923v-351.310769h-153.659077z" fill="#000000" opacity=".35" p-id="16223"></path><path d="M708.135385 106.082462a106.082462 106.082462 0 1 1-212.184616 0 106.082462 106.082462 0 0 1 212.164923 0z" fill="#142A3B" p-id="16224"></path><path d="M585.038769 84.125538a26.899692 26.899692 0 1 1-53.779692 0 26.899692 26.899692 0 0 1 53.76 0z" fill="#EDEDED" p-id="16225"></path><path d="M625.486769 2.796308c23.473231 19.456 38.734769 48.462769 38.734769 81.32923a106.082462 106.082462 0 0 1-106.082461 106.082462c-8.073846 0-15.872-1.083077-23.433846-2.796308 18.353231 15.222154 41.629538 24.733538 67.347692 24.733539A105.984 105.984 0 1 0 625.486769 2.796308z" fill="#000000" opacity=".35" p-id="16226"></path></svg>